<svg xmlns="http://www.w3.org/2000/svg" xml:space="preserve" fill="#ff00d0" version="1.1" viewBox="-3.67 -3.67 68.47 68.47"><path d="M27.482 34.031v12.317h-6.92a3.084 3.084 0 0 0 0 6.168h6.92v5.531a3.084 3.084 0 0 0 6.168 0v-5.531h6.92a3.084 3.084 0 0 0 0-6.168h-6.92V34.031c7.993-1.458 14.072-8.467 14.072-16.874C47.723 7.697 40.026 0 30.566 0c-9.46 0-17.157 7.697-17.157 17.157 0 8.407 6.08 15.416 14.073 16.874zm3.084-27.862c6.059 0 10.988 4.929 10.988 10.988s-4.929 10.988-10.988 10.988-10.988-4.929-10.988-10.988S24.507 6.169 30.566 6.169z" stroke="#050505" stroke-linecap="round" stroke-linejoin="round" stroke-width="6.113"/><path d="M27.482 34.031v12.317h-6.92a3.084 3.084 0 0 0 0 6.168h6.92v5.531a3.084 3.084 0 0 0 6.168 0v-5.531h6.92a3.084 3.084 0 0 0 0-6.168h-6.92V34.031c7.993-1.458 14.072-8.467 14.072-16.874C47.723 7.697 40.026 0 30.566 0c-9.46 0-17.157 7.697-17.157 17.157 0 8.407 6.08 15.416 14.073 16.874zm3.084-27.862c6.059 0 10.988 4.929 10.988 10.988s-4.929 10.988-10.988 10.988-10.988-4.929-10.988-10.988S24.507 6.169 30.566 6.169z"/></svg>