<!DOCTYPE svg PUBLIC "-//W3C//DTD SVG 1.1//EN" "http://www.w3.org/Graphics/SVG/1.1/DTD/svg11.dtd">
<!-- Uploaded to: SVG Repo, www.svgrepo.com, Transformed by: SVG Repo Mixer Tools -->
<svg fill="#ff00d0" height="800px" width="800px" version="1.1" id="Capa_1" xmlns="http://www.w3.org/2000/svg" xmlns:xlink="http://www.w3.org/1999/xlink" viewBox="-3.67 -3.67 68.47 68.47" xml:space="preserve">
<g id="SVGRepo_bgCarrier" stroke-width="0"/>
<g id="SVGRepo_tracerCarrier" stroke-linecap="round" stroke-linejoin="round" stroke="#050505" stroke-width="6.1132"> <path d="M27.482,34.031v12.317h-6.92c-1.703,0-3.084,1.381-3.084,3.084s1.381,3.084,3.084,3.084h6.92v5.531 c0,1.703,1.381,3.084,3.084,3.084s3.084-1.381,3.084-3.084v-5.531h6.92c1.703,0,3.084-1.381,3.084-3.084s-1.381-3.084-3.084-3.084 h-6.92V34.031c7.993-1.458,14.072-8.467,14.072-16.874C47.723,7.697,40.026,0,30.566,0c-9.46,0-17.157,7.697-17.157,17.157 C13.409,25.564,19.489,32.573,27.482,34.031z M30.566,6.169c6.059,0,10.988,4.929,10.988,10.988s-4.929,10.988-10.988,10.988 s-10.988-4.929-10.988-10.988S24.507,6.169,30.566,6.169z"/> </g>
<g id="SVGRepo_iconCarrier"> <path d="M27.482,34.031v12.317h-6.92c-1.703,0-3.084,1.381-3.084,3.084s1.381,3.084,3.084,3.084h6.92v5.531 c0,1.703,1.381,3.084,3.084,3.084s3.084-1.381,3.084-3.084v-5.531h6.92c1.703,0,3.084-1.381,3.084-3.084s-1.381-3.084-3.084-3.084 h-6.92V34.031c7.993-1.458,14.072-8.467,14.072-16.874C47.723,7.697,40.026,0,30.566,0c-9.46,0-17.157,7.697-17.157,17.157 C13.409,25.564,19.489,32.573,27.482,34.031z M30.566,6.169c6.059,0,10.988,4.929,10.988,10.988s-4.929,10.988-10.988,10.988 s-10.988-4.929-10.988-10.988S24.507,6.169,30.566,6.169z"/> </g>
</svg>