<svg xmlns="http://www.w3.org/2000/svg" fill="none" stroke="#00f" viewBox="-.24 -.24 24.48 24.48"><path d="M15 3a1 1 0 0 1 1-1h4a2 2 0 0 1 2 2v4a1 1 0 1 1-2 0V5.413l-4.533 4.533c-.05.05-.104.093-.16.13a8 8 0 1 1-1.385-1.384.98.98 0 0 1 .13-.16L18.584 4H16a1 1 0 0 1-1-1ZM9 20.996A5.996 5.996 0 1 1 9 9.004a5.996 5.996 0 0 1 0 11.992Z" fill="#00f" fill-rule="evenodd" stroke="#030303" stroke-linecap="round" stroke-linejoin="round" stroke-width="2.4" clip-rule="evenodd"/><path d="M15 3a1 1 0 0 1 1-1h4a2 2 0 0 1 2 2v4a1 1 0 1 1-2 0V5.413l-4.533 4.533c-.05.05-.104.093-.16.13a8 8 0 1 1-1.385-1.384.98.98 0 0 1 .13-.16L18.584 4H16a1 1 0 0 1-1-1ZM9 20.996A5.996 5.996 0 1 1 9 9.004a5.996 5.996 0 0 1 0 11.992Z" fill="#00f" fill-rule="evenodd" clip-rule="evenodd"/></svg>