<!DOCTYPE svg PUBLIC "-//W3C//DTD SVG 1.1//EN" "http://www.w3.org/Graphics/SVG/1.1/DTD/svg11.dtd">
<!-- Uploaded to: SVG Repo, www.svgrepo.com, Transformed by: SVG Repo Mixer Tools -->
<svg fill="#86155f" width="800px" height="800px" viewBox="-2.4 -2.4 28.80 28.80" xmlns="http://www.w3.org/2000/svg" stroke="#86155f" stroke-width="0.00024000000000000003">
<g id="SVGRepo_bgCarrier" stroke-width="0" transform="translate(0,0), scale(1)"/>
<g id="SVGRepo_tracerCarrier" stroke-linecap="round" stroke-linejoin="round" stroke="#86155f" stroke-width="2.784">
<path d="M12.768,8.359a1.035,1.035,0,0,0-1.536,0l-5,6A1,1,0,0,0,7,16H17a1,1,0,0,0,.768-1.641ZM9.135,14,12,10.563,14.865,14Z"/>
</g>
<g id="SVGRepo_iconCarrier">
<path d="M12.768,8.359a1.035,1.035,0,0,0-1.536,0l-5,6A1,1,0,0,0,7,16H17a1,1,0,0,0,.768-1.641ZM9.135,14,12,10.563,14.865,14Z"/>
</g>
</svg>