<svg xmlns="http://www.w3.org/2000/svg" xml:space="preserve" fill="#ff0040" stroke="#ff0040" version="1.1" viewBox="0 0 512 512"><path d="M505.379 107.294 404.698 6.613c-20.153-20.158-50.683 10.328-30.506 30.506l12.234 12.234-58.83 58.828-51.012-51.011c-20.153-20.158-50.683 10.328-30.506 30.506l23.524 23.524-28.484 28.484 48.81 48.81c20.153 20.153-10.326 50.69-30.506 30.506l-48.81-48.81-17.287 17.287 48.81 48.81c20.152 20.152-10.326 50.69-30.506 30.506l-48.81-48.81-17.286 17.287 48.81 48.81c20.152 20.152-10.326 50.69-30.506 30.506l-48.81-48.81-43.737 43.737c-8.424 8.424-8.424 22.082 0 30.506l35.088 35.088-99.766 99.765c-20.152 20.152 10.326 50.69 30.506 30.506l99.763-99.763 35.088 35.088c8.423 8.424 22.082 8.424 30.506 0L400.79 242.389l23.524 23.524c19.988 19.991 50.94-10.072 30.506-30.506-6.397-6.395-37.504-37.504-51.012-51.012l58.83-58.83 12.234 12.234c20.151 20.155 50.689-10.322 30.507-30.505zm-132.076 46.595-15.201-15.201L416.93 79.86l15.201 15.201-58.828 58.828z"/></svg>